<?xml version="1.0" standalone="no"?><!DOCTYPE svg PUBLIC "-//W3C//DTD SVG 1.1//EN" "http://www.w3.org/Graphics/SVG/1.1/DTD/svg11.dtd"><svg t="1524566320539" class="icon" style="" viewBox="0 0 1024 1024" version="1.1" xmlns="http://www.w3.org/2000/svg" p-id="3403" xmlns:xlink="http://www.w3.org/1999/xlink" width="200" height="200"><defs><style type="text/css"></style></defs><path d="M972 366.8h-52.8c-20.8 39.7-46.6 76.1-77.1 108.7-42.9 45.9-92.8 82-148.4 107.2C636.2 608.7 575 622 512 622s-124.2-13.2-181.7-39.3c-55.6-25.2-105.5-61.2-148.4-107.2-30.5-32.6-56.2-69-77.1-108.7H52c28.1 60.5 66.4 114.7 112.4 160L76.8 638.5l35.8 32.1 87.5-111.7c34.9 28.6 73.3 52.5 114.5 70.9L268 766.7l43.9 17.1 46.5-136.9c41.4 13.9 85.1 22.3 130.2 24.4v145.8h46.7V671.4c45.2-2.2 88.8-10.6 130.2-24.4L712 783.9l43.9-17.1-46.5-136.9c41.1-18.4 79.6-42.3 114.5-70.9l87.5 111.7 35.8-32.1-87.5-111.7c45.9-45.4 84.2-99.6 112.3-160.1z" fill="" p-id="3404"></path></svg>