<?xml version="1.0" standalone="no"?><!DOCTYPE svg PUBLIC "-//W3C//DTD SVG 1.1//EN" "http://www.w3.org/Graphics/SVG/1.1/DTD/svg11.dtd"><svg t="1524565791128" class="icon" style="" viewBox="0 0 1024 1024" version="1.1" xmlns="http://www.w3.org/2000/svg" p-id="3147" xmlns:xlink="http://www.w3.org/1999/xlink" width="200" height="200"><defs><style type="text/css"></style></defs><path d="M879.974 866.723H145.148c-81.647 0-81.648-81.647-81.648-81.647V499.31l204.118-367.413h489.884L961.621 499.31v285.766c0 81.648-81.647 81.647-81.647 81.647zM716.679 213.544H308.442L165.559 499.31h694.003L716.679 213.544z m163.295 367.413H145.147v204.118h734.826V580.957zM594.208 703.428H430.913v-40.824h163.295v40.824z m102.059-326.589l20.412 40.824H308.442l20.412-40.824h367.413z m-326.589-81.648h285.766l20.412 40.824h-326.59l20.412-40.824z" p-id="3148"></path></svg>